/* XPM */
static char *xicon_xpm[] = {
/* columns rows colors chars-per-pixel */
"32 32 4 1",
"  c black",
". c red",
"X c gray77",
"o c None",
/* pixels */
"o...........oooooooooooooooooooo",
"...........XXXXXXXXXXXXXXXXXXXXo",
"..XXXXXXXXXXXXXXXXXXXXXXXXXXXXXo",
"..XXXXXXXXXXXXXXXXXXXXXXXXXXXXXo",
"..XXXXXXXXXXXXXXXXXXXXXXXXXXXXXo",
"..XXXXXXXXXXX..XXXXX.XXX...XXXXo",
"..XXXXXXXXXXXXX.XXXXX.X.XXX.XXXo",
"..XXXXXXXXXXXXX.........XXX.XXXo",
"..XXXXXXXXXXXXX.XXXXXX.X...XXXXo",
"..XXXXXXXXXXX..XXXXXX.XXXXXXXXXo",
"..XXXXXXXXXXXXXXXXX.XXXXXXXXXXXo",
"..XXXXXXXXXXXXXX.X.XXXXXXXXXXXXo",
"...XXXXXXXXXXX.X..XXXXXXXXXXXXXo",
".........XXXXX.....XXXXXXXXXXXXo",
"..........XXXXXXXXXXXXXXXXXXXXXo",
".........XXXXXXXXX.......XXXXXXo",
"...XXXXXXXXXXXXXX.........XXXXXo",
"..XXXXXXXXXXXXX.............XXXo",
"..XXXXXXXXXXXX...XXXX..XXX...XXo",
"..XXXXXXXXXXX...XXXXX..XXXX...Xo",
"..XXXXXXXXXXX..XXXXXX..XXXXX..Xo",
"..XXXXXXXXXXX..XXXXXX..XXXXX..Xo",
"..XXXXXXXXXXX..XXXXXX..XXXXX..Xo",
"..XXXXXXXXXXX..XXXXXXXXXXXXX..Xo",
"..XXXXXXXXXXX..XXXXXXXXXXXXX..Xo",
"..XXXXXXXXXXX..XXXXXXXXXXXXX..Xo",
"..XXXXXXXXXXX..XXXXXXXXXXXXX..Xo",
"..XXXXXXXXXXX..XXXXXXXXXXXXX..Xo",
"..XXXXXXXXXXX..XXXXXXXXXXXXX..Xo",
"ooXXXXXXXXXXX..XXXXXXXXXXXXX..Xo",
"ooXXXXXXXXXXX..XXXXXXXXXXXXX..Xo",
"oooooooooooooooooooooooooooooooo"
};
